# xmcd
#
# Track frame offsets:
# 182
# 13515
# 25440
# 40895
# 56782
# 66840
# 78657
# 90980
# 106137
# 125877
# 141690
# 156257
# 166972
# 179690
# 191080
# 203330
# 217082
# 231202
# 242115
# 252857
#
# Disc length: 3549 seconds
#
#
# Revision: 4
# Processed by: cddbd v1.5.1PL2 Copyright (c) Steve Scherf et al.
# Submitted via: FreeRIP 2.60 
#
DISCID=270ddb14
DTITLE=Kenny Rogers - For The Good Times
DYEAR=1990
DGENRE=Country
TTITLE0=Ruby Don't Take Your Love To Town
TTITLE1=Poems For My Little Lady
TTITLE2=For The Good Times
TTITLE3=Good Lady Of Toronto
TTITLE4=Where Does Rosie Go
TTITLE5=Me And Bobby McGee
TTITLE6=What Am I Gonna Do
TTITLE7=All God's Lonely Children
TTITLE8=Lay It Down
TTITLE9=Tulsa Turnaround
TTITLE10=Sunshine
TTITLE11=Goodtime Liberator
TTITLE12=Reuben James
TTITLE13=Always Leaving Always Gone
TTITLE14=Elvira
TTITLE15=Shine On Ruby Mountain
TTITLE16=Loser
TTITLE17=Homemade Lie
TTITLE18=Ticket To Nowhere
TTITLE19=Ruby Don't Take Your Love To Town (Reprise)
EXTD=YEAR: 1990
EXTT0=
EXTT1=
EXTT2=
EXTT3=
EXTT4=
EXTT5=
EXTT6=
EXTT7=
EXTT8=
EXTT9=
EXTT10=
EXTT11=
EXTT12=
EXTT13=
EXTT14=
EXTT15=
EXTT16=
EXTT17=
EXTT18=
EXTT19=
PLAYORDER=
